<svg xmlns="http://www.w3.org/2000/svg" width="1024" height="1024" viewBox="0 0 1024 1024">
<g>
<path d="M 299.75 625.97 C289.12,623.30 278.59,614.23 275.27,604.90 C274.31,602.20 273.30,600.01 273.02,600.03 C272.73,600.04 270.96,602.32 269.08,605.09 C264.40,612.00 257.73,617.69 250.00,621.39 C243.94,624.29 242.75,624.50 232.50,624.50 C221.96,624.49 221.23,624.35 215.02,621.11 C202.29,614.48 191.77,600.02 187.30,583.00 C184.99,574.21 184.99,555.79 187.30,547.00 C191.83,529.77 202.65,515.25 215.79,508.78 C222.05,505.70 223.11,505.50 232.98,505.50 C242.35,505.50 244.14,505.80 249.34,508.23 C252.55,509.74 256.60,512.16 258.34,513.62 C262.48,517.09 268.80,525.47 271.06,530.50 C272.86,534.49 272.86,534.46 272.89,511.50 C272.91,490.20 272.41,483.27 270.52,478.75 C269.83,477.11 271.46,477.00 296.78,477.00 L 323.76 477.00 L 322.43 480.75 C321.36,483.73 321.08,497.78 321.04,549.18 L 321.00 613.85 L 323.63 615.93 C325.08,617.07 326.94,618.00 327.77,618.00 C329.95,618.00 325.02,621.66 319.64,624.04 C314.35,626.38 304.99,627.29 299.75,625.97 ZM 269.10 601.71 L 272.50 599.42 L 272.76 569.14 C273.01,540.97 272.89,538.55 271.08,534.45 C265.75,522.41 249.72,523.65 241.03,536.77 C235.03,545.82 233.61,551.23 233.61,565.00 C233.61,578.83 235.03,584.17 241.15,593.41 C247.56,603.09 261.09,607.11 269.10,601.71 ZM 652.38 624.91 C629.26,622.21 609.59,605.95 602.37,583.58 C599.08,573.38 598.67,558.80 601.41,549.50 C607.62,528.43 625.09,511.26 645.10,506.54 C653.73,504.50 673.36,504.52 681.27,506.57 C702.52,512.08 719.98,529.80 725.48,551.46 C731.39,574.69 720.99,601.16 700.60,614.80 C691.96,620.59 683.71,623.59 672.58,624.99 C664.61,626.00 661.30,625.68 666.63,624.42 C670.89,623.41 676.02,619.19 677.61,615.40 C678.73,612.71 679.00,602.97 679.00,564.93 C679.00,512.35 679.10,513.18 672.12,508.44 C665.02,503.61 655.21,505.74 649.59,513.32 C647.55,516.08 647.49,517.26 647.21,562.57 C647.02,593.10 647.29,610.36 647.99,612.95 C649.27,617.70 654.18,622.89 658.15,623.68 C661.03,624.26 663.29,626.12 660.81,625.87 C660.09,625.80 656.29,625.37 652.38,624.91 ZM 377.00 623.42 C366.83,620.74 359.02,616.08 350.39,607.53 C337.72,594.97 332.44,582.04 332.65,564.00 C332.95,536.84 352.07,512.67 378.10,506.54 C386.52,504.55 404.80,504.54 412.54,506.52 C433.72,511.93 449.58,527.55 456.44,549.75 L 457.13 552.00 L 418.07 552.00 L 379.00 552.00 L 379.00 557.41 C379.00,572.01 389.06,588.39 402.15,595.08 C411.92,600.07 424.08,601.34 434.07,598.40 C441.07,596.35 445.37,593.78 451.25,588.13 C453.86,585.63 456.00,584.04 456.00,584.61 C456.00,586.89 448.17,598.34 443.00,603.62 C433.61,613.19 422.25,619.74 409.23,623.07 C400.16,625.39 385.11,625.55 377.00,623.42 ZM 410.00 533.75 C409.99,518.30 409.79,516.16 408.01,513.24 C401.83,503.12 386.00,503.57 380.75,514.02 C379.30,516.92 379.00,520.30 379.00,534.25 L 379.00 551.00 L 394.50 551.00 L 410.00 551.00 L 410.00 533.75 ZM 509.50 623.13 C495.03,618.96 480.91,607.82 473.64,594.81 C462.98,575.76 463.63,551.99 475.29,533.76 C482.50,522.49 496.08,512.03 508.98,507.80 C516.95,505.19 538.48,504.18 548.61,505.95 C562.89,508.43 586.48,517.56 585.83,520.35 C585.51,521.70 553.69,567.98 553.31,567.63 C553.21,567.54 554.43,563.77 556.02,559.27 C567.62,526.50 560.58,504.29 539.60,507.43 C525.76,509.51 514.34,526.83 512.50,548.52 C510.55,571.59 523.21,592.06 543.18,598.12 C558.19,602.68 574.27,598.83 584.99,588.10 C587.75,585.35 590.00,583.35 590.00,583.66 C590.00,583.97 588.61,586.82 586.92,590.00 C578.62,605.57 560.99,618.65 541.94,623.37 C533.23,625.53 517.42,625.41 509.50,623.13 ZM 737.55 622.25 C738.75,619.96 738.99,610.22 738.99,563.75 C739.00,533.09 739.21,508.00 739.46,508.00 C739.71,508.00 741.56,509.12 743.57,510.49 C751.70,516.00 765.47,516.66 778.75,512.17 L 787.00 509.37 L 787.04 520.94 L 787.07 532.50 L 789.68 527.10 C796.25,513.52 809.75,507.10 822.71,511.40 C829.96,513.81 836.45,521.19 838.38,529.24 C839.02,531.91 838.68,532.15 824.03,539.49 C815.78,543.62 808.86,547.00 808.65,547.00 C808.45,547.00 808.01,544.71 807.67,541.90 C806.62,533.03 800.95,526.22 795.71,527.54 C792.09,528.45 788.37,532.40 787.62,536.14 C787.28,537.85 787.01,554.83 787.03,573.88 C787.06,605.87 787.71,618.79 789.51,623.25 C790.17,624.89 788.53,625.00 763.17,625.00 L 736.12 625.00 L 737.55 622.25 ZM 409.41 446.58 C403.14,445.15 393.24,440.64 389.19,437.36 L 386.89 435.50 L 389.20 431.26 C390.46,428.92 391.79,427.01 392.15,427.01 C392.51,427.00 395.01,428.49 397.71,430.30 C405.21,435.35 412.97,437.51 423.50,437.46 C433.82,437.42 437.90,435.85 441.04,430.70 C445.02,424.18 442.42,416.82 434.85,413.19 C432.46,412.04 425.37,409.71 419.10,408.01 C404.04,403.94 398.72,401.54 394.58,396.96 C390.39,392.32 389.19,386.22 390.92,378.45 C393.35,367.63 401.45,361.11 415.35,358.81 C426.29,356.99 440.83,360.46 448.69,366.75 L 450.87 368.50 L 448.38 372.67 L 445.89 376.85 L 441.19 373.96 C438.61,372.37 433.82,370.37 430.54,369.53 C414.43,365.39 402.00,371.07 402.00,382.57 C402.00,390.94 405.86,393.33 429.24,399.41 C441.02,402.48 445.70,404.76 449.80,409.43 C455.87,416.34 456.47,427.46 451.24,435.94 C449.06,439.47 446.92,441.27 441.76,443.90 C435.76,446.96 434.12,447.33 425.30,447.63 C419.32,447.84 413.12,447.42 409.41,446.58 ZM 746.38 446.59 C735.14,443.86 725.31,435.48 719.51,423.68 C708.07,400.41 717.58,372.65 740.74,361.71 C746.74,358.88 748.45,358.53 756.00,358.58 C767.56,358.67 774.09,361.28 782.57,369.22 C801.90,387.30 802.58,417.42 784.07,435.93 C774.08,445.92 760.02,449.90 746.38,446.59 ZM 768.74 434.41 C774.62,431.55 779.82,425.81 783.23,418.42 C785.13,414.30 785.50,411.80 785.50,403.00 C785.50,393.54 785.22,391.94 782.72,386.84 C779.64,380.57 773.73,373.95 769.05,371.53 C756.54,365.06 740.43,369.53 732.32,381.72 C726.24,390.86 724.26,404.71 727.59,414.72 C734.09,434.20 751.76,442.66 768.74,434.41 ZM 198.00 403.00 L 198.00 359.00 L 227.50 359.00 L 257.00 359.00 L 257.00 364.00 L 257.00 369.00 L 233.55 369.00 L 210.11 369.00 L 209.80 383.00 L 209.50 397.00 L 230.25 397.00 L 251.00 397.00 L 251.00 402.00 L 251.00 407.00 L 230.25 407.00 L 209.50 407.00 L 209.50 422.00 L 209.50 437.00 L 233.75 437.00 L 258.00 437.00 L 258.00 442.00 L 258.00 447.00 L 228.00 447.00 L 198.00 447.00 L 198.00 403.00 ZM 284.71 442.75 C285.63,440.41 293.68,420.73 302.58,399.00 L 318.77 359.50 L 323.65 359.21 L 328.53 358.91 L 345.74 401.21 C355.21,424.47 363.24,444.29 363.59,445.25 C364.14,446.79 363.51,447.00 358.36,446.99 L 352.50 446.98 L 347.34 434.24 L 342.17 421.50 L 323.70 421.23 L 305.23 420.96 L 300.01 433.98 L 294.78 447.00 L 288.90 447.00 L 283.02 447.00 L 284.71 442.75 ZM 339.00 411.95 C339.00,410.44 325.04,374.66 324.07,373.68 C323.35,372.95 308.00,409.55 308.00,412.00 C308.00,412.62 313.86,413.00 323.50,413.00 C333.69,413.00 339.00,412.64 339.00,411.95 ZM 510.00 430.48 C510.00,414.89 509.87,413.75 507.66,410.23 C506.38,408.18 498.98,395.81 491.22,382.75 L 477.11 359.00 L 483.31 359.02 L 489.50 359.03 L 502.47 381.52 C509.60,393.88 515.69,404.00 515.99,404.00 C516.29,404.00 522.35,394.06 529.44,381.90 C536.54,369.75 542.89,359.60 543.55,359.34 C544.20,359.09 547.01,359.02 549.79,359.19 L 554.83 359.50 L 538.42 386.82 L 522.00 414.13 L 522.00 430.57 L 522.00 447.00 L 516.00 447.00 L 510.00 447.00 L 510.00 430.48 ZM 650.00 408.00 L 650.00 369.00 L 634.50 369.00 L 619.00 369.00 L 619.00 364.00 L 619.00 359.00 L 655.00 359.00 L 691.00 359.00 L 691.00 364.00 L 691.00 369.00 L 676.00 369.00 L 661.00 369.00 L 661.00 408.00 L 661.00 447.00 L 655.50 447.00 L 650.00 447.00 L 650.00 408.00 Z" fill="rgba(0,0,0,1)"/>
</g>
</svg>